# xmcd CD database file
#
# Track frame offsets:
#	150
#	11684
#	32763
#	55396
#	70941
#	84540
#	97297
#	117195
#	126304
#	133461
#
# Disc length: 2115 seconds
#
# Revision: 1
# Processed by: cddbd v1.5.1PL0 Copyright (c) Steve Scherf et al.
# Submitted via: jetAudio 5
#
DISCID=9508410a
DTITLE=Dave van Ronk - Just Dave van Ronk
DYEAR=1900
DGENRE=
TTITLE0=Candy Man
TTITLE1=Frankie's Blues
TTITLE2=Bad Dream Blues
TTITLE3=Pastures of Plenty
TTITLE4=Didn't It Rain
TTITLE5=Wanderin'
TTITLE6=God Bless the Child
TTITLE7=Blue Monday
TTITLE8=Baby Let Me Lay It On You
TTITLE9=House of the Rising Sun
EXTD=
EXTT0=
EXTT1=
EXTT2=
EXTT3=
EXTT4=
EXTT5=
EXTT6=
EXTT7=
EXTT8=
EXTT9=
PLAYORDER=
